<svg width="34" height="29" viewBox="0 0 34 29" fill="none" xmlns="http://www.w3.org/2000/svg">
<path d="M16.3601 28.8763C16.5632 28.9593 16.7806 29.0013 17 29C17.2193 29.0013 17.4367 28.9593 17.6398 28.8763C17.8429 28.7934 18.0275 28.6712 18.1833 28.5167L31.1333 15.55C32.7577 13.9087 33.6688 11.6926 33.6688 9.38336C33.6688 7.07408 32.7577 4.85807 31.1333 3.21669C29.4962 1.58421 27.2786 0.66748 24.9666 0.66748C22.6547 0.66748 20.4371 1.58421 18.7999 3.21669L17 5.01669L15.2 3.21669C13.5628 1.58421 11.3452 0.66748 9.03328 0.66748C6.72133 0.66748 4.50372 1.58421 2.86662 3.21669C1.24222 4.85807 0.331055 7.07408 0.331055 9.38336C0.331055 11.6926 1.24222 13.9087 2.86662 15.55L15.8166 28.5167C15.9723 28.6712 16.157 28.7934 16.3601 28.8763Z" fill="#DE0A30"/>
</svg>
