<svg width="205" height="24" viewBox="0 0 205 24" fill="none" xmlns="http://www.w3.org/2000/svg">
<path d="M20.989 19.872C20.9037 20.1493 20.861 20.4267 20.861 20.704C20.861 20.9387 20.893 21.1413 20.957 21.312C21.021 21.4613 21.085 21.5893 21.149 21.696C21.2343 21.7813 21.2877 21.8453 21.309 21.888C21.5223 22.1013 21.629 22.3147 21.629 22.528C21.629 22.5707 21.6077 22.6773 21.565 22.848C21.4797 23.1467 21.2877 23.36 20.989 23.488C20.7117 23.5947 20.2743 23.648 19.677 23.648H12.093C11.645 23.648 11.293 23.5733 11.037 23.424C10.8023 23.2747 10.685 23.072 10.685 22.816C10.685 22.688 10.717 22.5493 10.781 22.4C10.845 22.2293 10.9303 22.1013 11.037 22.016C11.165 21.9093 11.3357 21.792 11.549 21.664C11.8903 21.472 12.1677 21.2587 12.381 21.024C12.5943 20.7893 12.7757 20.4053 12.925 19.872L13.757 17.12H8.765L7.901 18.944C7.53833 19.7333 7.357 20.352 7.357 20.8C7.357 21.056 7.39967 21.2693 7.485 21.44C7.57033 21.5893 7.69833 21.7493 7.869 21.92C8.01833 22.0907 8.11433 22.24 8.157 22.368C8.221 22.4747 8.23167 22.624 8.189 22.816C8.10367 23.136 7.92233 23.36 7.645 23.488C7.389 23.5947 6.973 23.648 6.397 23.648H1.629C1.13833 23.648 0.765 23.5627 0.509 23.392C0.253 23.2 0.125 22.9547 0.125 22.656C0.125 22.3147 0.253 22.048 0.509 21.856C0.743667 21.6427 1.10633 21.4187 1.597 21.184C2.237 20.864 2.749 20.5547 3.133 20.256C3.517 19.936 3.84767 19.4987 4.125 18.944L9.821 7.136C10.6957 5.30133 11.7197 3.97867 12.893 3.168C14.0877 2.336 15.6557 1.92 17.597 1.92C19.773 1.92 21.4583 2.368 22.653 3.264C23.8477 4.13867 24.445 5.36533 24.445 6.944C24.445 7.60533 24.3383 8.288 24.125 8.992L20.989 19.872ZM14.717 13.92L16.413 8.288C16.4983 8.032 16.541 7.76533 16.541 7.488C16.541 7.08267 16.4237 6.784 16.189 6.592C15.9757 6.37867 15.6663 6.272 15.261 6.272C14.749 6.272 14.3117 6.42133 13.949 6.72C13.5863 7.01867 13.2237 7.552 12.861 8.32L10.237 13.92H14.717Z" fill="#FFD61E"/>
<path d="M42.7887 19.232C42.7461 19.4027 42.7248 19.5307 42.7248 19.616C42.7248 19.7653 42.7568 19.8827 42.8208 19.968C42.9061 20.0533 43.0128 20.096 43.1408 20.096C43.3968 20.096 43.6101 19.9893 43.7808 19.776C43.9728 19.5413 44.1007 19.424 44.1647 19.424C44.2714 19.424 44.3567 19.4987 44.4207 19.648C44.5061 19.776 44.5488 19.936 44.5488 20.128C44.5701 20.7253 44.3567 21.3227 43.9087 21.92C43.4607 22.496 42.8314 22.976 42.0208 23.36C41.2101 23.744 40.3034 23.936 39.3008 23.936C38.0421 23.936 37.0394 23.68 36.2928 23.168C35.5461 22.656 35.0661 21.984 34.8527 21.152C34.0847 22.0053 33.2314 22.656 32.2928 23.104C31.3754 23.5307 30.4367 23.744 29.4767 23.744C27.9834 23.744 26.7248 23.3813 25.7008 22.656C24.6981 21.9093 24.1968 20.8747 24.1968 19.552C24.1968 18.9547 24.3034 18.336 24.5168 17.696L26.5648 11.008C26.6288 10.816 26.6607 10.656 26.6607 10.528C26.6607 10.2933 26.6074 10.112 26.5007 9.984C26.3941 9.83467 26.2341 9.68533 26.0208 9.536C25.8074 9.36533 25.6581 9.216 25.5728 9.088C25.4874 8.96 25.4768 8.78933 25.5408 8.576C25.6688 8.08533 26.3408 7.65867 27.5568 7.296C28.7728 6.912 30.0421 6.72 31.3647 6.72C32.6021 6.72 33.5088 6.95467 34.0848 7.424C34.6608 7.89333 34.9487 8.53333 34.9487 9.344C34.9487 9.83467 34.8741 10.304 34.7248 10.752L32.7088 17.408C32.6234 17.6427 32.5807 17.8667 32.5807 18.08C32.5807 18.3787 32.6661 18.6027 32.8368 18.752C33.0074 18.9013 33.2314 18.976 33.5088 18.976C33.9141 18.976 34.2448 18.8587 34.5008 18.624C34.7568 18.3893 35.0127 17.9947 35.2687 17.44L37.2207 11.008C37.2847 10.816 37.3167 10.656 37.3167 10.528C37.3167 10.2933 37.2634 10.112 37.1567 9.984C37.0501 9.83467 36.9008 9.68533 36.7088 9.536C36.4954 9.36533 36.3461 9.216 36.2607 9.088C36.1754 8.96 36.1648 8.78933 36.2288 8.576C36.3354 8.08533 36.9967 7.65867 38.2127 7.296C39.4287 6.912 40.6981 6.72 42.0208 6.72C43.2581 6.72 44.1647 6.95467 44.7407 7.424C45.3381 7.89333 45.6367 8.52267 45.6367 9.312C45.6367 9.71733 45.5514 10.1973 45.3807 10.752L42.7887 19.232Z" fill="#FFD61E"/>
<path d="M60.0223 7.136C60.4276 7.136 60.7369 7.22133 60.9502 7.392C61.1849 7.56267 61.3022 7.79733 61.3022 8.096C61.3022 8.18133 61.2809 8.33067 61.2383 8.544C60.9609 9.48267 60.3209 9.952 59.3182 9.952H57.4622L55.0623 17.856C54.9556 18.176 54.9022 18.5067 54.9022 18.848C54.9022 19.232 55.0089 19.4987 55.2223 19.648C55.4356 19.7973 55.7343 19.872 56.1183 19.872C56.4596 19.872 56.8863 19.8293 57.3983 19.744C57.6543 19.68 57.8783 19.648 58.0703 19.648C58.2196 19.648 58.3263 19.7013 58.3903 19.808C58.4756 19.8933 58.5182 20.0107 58.5182 20.16C58.5396 20.5867 58.2196 21.1093 57.5583 21.728C56.9183 22.3253 56.0436 22.848 54.9342 23.296C53.8249 23.7227 52.5982 23.936 51.2542 23.936C49.8036 23.936 48.6409 23.6053 47.7663 22.944C46.8916 22.2827 46.4543 21.376 46.4543 20.224C46.4543 19.6907 46.5396 19.1787 46.7103 18.688L48.7583 12.352C48.8649 11.9893 48.9183 11.7013 48.9183 11.488C48.9183 11.0613 48.8116 10.6987 48.5983 10.4C48.4063 10.1013 48.1289 9.792 47.7663 9.472C47.4463 9.17333 47.2222 8.928 47.0942 8.736C46.9662 8.52267 46.9342 8.27733 46.9982 8C47.0836 7.72267 47.2649 7.50933 47.5423 7.36C47.8196 7.21067 48.2569 7.136 48.8543 7.136H50.6463L52.6623 5.12C53.3663 4.416 54.0062 3.92533 54.5822 3.648C55.1796 3.37067 55.9476 3.232 56.8862 3.232C58.2303 3.232 58.9023 3.744 58.9023 4.768C58.9023 5.088 58.8596 5.38667 58.7743 5.664L58.3263 7.136H60.0223Z" fill="#FFD61E"/>
<path d="M71.8522 6.72C74.7536 6.72 76.8869 7.30667 78.2523 8.48C79.6389 9.65333 80.3323 11.1893 80.3323 13.088C80.3323 13.728 80.2469 14.4427 80.0762 15.232C79.6709 16.9813 78.9136 18.5173 77.8043 19.84C76.6949 21.1413 75.3296 22.1547 73.7083 22.88C72.1083 23.584 70.3696 23.936 68.4922 23.936C65.5269 23.936 63.3296 23.3493 61.9002 22.176C60.4922 20.9813 59.7882 19.4027 59.7882 17.44C59.7882 16.7787 59.8736 16.0427 60.0443 15.232C60.4496 13.568 61.2176 12.096 62.3483 10.816C63.5003 9.51467 64.8976 8.512 66.5403 7.808C68.2043 7.08267 69.9749 6.72 71.8522 6.72ZM71.7562 9.568C71.3082 9.568 70.8283 9.97333 70.3163 10.784C69.8256 11.5733 69.2389 13.0773 68.5563 15.296C67.8736 17.5147 67.5322 19.072 67.5322 19.968C67.5322 20.4373 67.6069 20.7573 67.7562 20.928C67.9056 21.0773 68.1082 21.152 68.3643 21.152C68.8123 21.1947 69.2709 20.8107 69.7402 20C70.2309 19.1893 70.8389 17.6107 71.5642 15.264C72.2256 13.1947 72.5563 11.6907 72.5563 10.752C72.5563 10.304 72.4816 9.99467 72.3323 9.824C72.2043 9.65333 72.0122 9.568 71.7562 9.568Z" fill="#FFD61E"/>
<path d="M91.6042 23.84C89.8122 23.84 88.2016 23.5093 86.7722 22.848C85.3429 22.1867 84.2016 21.216 83.3483 19.936C82.5163 18.6347 82.1003 17.0667 82.1003 15.232C82.1003 13.952 82.3242 12.5653 82.7722 11.072C83.7536 7.872 85.2363 5.568 87.2203 4.16C89.2043 2.73067 91.3269 2.016 93.5882 2.016C94.8042 2.016 95.8816 2.19733 96.8203 2.56C97.7589 2.92267 98.6229 3.44533 99.4122 4.128L100.276 3.456C100.852 3.008 101.332 2.69867 101.716 2.528C102.122 2.35733 102.57 2.272 103.06 2.272C103.594 2.272 104.02 2.38933 104.34 2.624C104.66 2.85867 104.82 3.2 104.82 3.648C104.82 3.88267 104.778 4.11733 104.692 4.352L102.9 9.344C102.708 9.92 102.474 10.3253 102.196 10.56C101.94 10.7947 101.546 10.912 101.012 10.912C100.458 10.912 99.9989 10.72 99.6363 10.336C99.2949 9.93067 98.9002 9.248 98.4522 8.288C97.9402 7.28533 97.5242 6.624 97.2042 6.304C96.8842 5.984 96.4149 5.824 95.7962 5.824C94.9216 5.824 94.0789 6.368 93.2682 7.456C92.4576 8.52267 91.7216 10.1333 91.0602 12.288C90.5056 14.1013 90.2282 15.616 90.2282 16.832C90.2282 17.8987 90.4309 18.6987 90.8363 19.232C91.2416 19.744 91.7856 20 92.4683 20C93.4709 20 94.2923 19.776 94.9323 19.328C95.5936 18.88 96.2656 18.272 96.9482 17.504C97.3749 17.0347 97.7163 16.6933 97.9723 16.48C98.2496 16.2453 98.5376 16.128 98.8363 16.128C99.2203 16.128 99.6256 16.32 100.052 16.704C100.479 17.088 100.682 17.472 100.66 17.856C100.682 18.3253 100.298 19.0507 99.5082 20.032C98.7402 21.0133 97.6629 21.8987 96.2763 22.688C94.9109 23.456 93.3536 23.84 91.6042 23.84Z" fill="#FFD61E"/>
<path d="M122.241 19.232C122.198 19.3173 122.176 19.4453 122.176 19.616C122.176 19.7653 122.208 19.8827 122.272 19.968C122.358 20.0533 122.464 20.096 122.592 20.096C122.848 20.096 123.062 19.9893 123.232 19.776C123.424 19.5413 123.553 19.424 123.617 19.424C123.723 19.424 123.808 19.4987 123.872 19.648C123.936 19.776 123.968 19.936 123.968 20.128C123.99 20.7467 123.787 21.3547 123.36 21.952C122.934 22.528 122.305 23.008 121.473 23.392C120.662 23.7547 119.681 23.936 118.529 23.936C117.121 23.936 116.001 23.616 115.169 22.976C114.337 22.3147 113.91 21.44 113.889 20.352C113.889 19.5627 114.081 18.6773 114.465 17.696L116.225 13.088C116.331 12.8107 116.384 12.5867 116.384 12.416C116.384 12.1387 116.289 11.9253 116.097 11.776C115.926 11.6053 115.712 11.52 115.456 11.52C115.051 11.52 114.635 11.712 114.209 12.096C113.803 12.4587 113.472 13.056 113.216 13.888V13.824L111.201 20.32C111.137 20.576 111.104 20.8 111.104 20.992C111.104 21.2693 111.158 21.4933 111.265 21.664C111.371 21.8133 111.521 21.9627 111.713 22.112C111.862 22.2613 111.969 22.3893 112.033 22.496C112.097 22.5813 112.107 22.6987 112.064 22.848C111.958 23.1253 111.744 23.328 111.424 23.456C111.104 23.584 110.614 23.648 109.952 23.648H102.657C102.102 23.648 101.696 23.5627 101.44 23.392C101.184 23.2 101.099 22.9547 101.185 22.656C101.27 22.4 101.494 22.176 101.856 21.984C102.176 21.8133 102.443 21.6107 102.657 21.376C102.87 21.1413 103.051 20.768 103.201 20.256L108.064 4.288C108.128 4.096 108.16 3.936 108.16 3.808C108.16 3.57333 108.096 3.38133 107.968 3.232C107.862 3.08267 107.712 2.93333 107.521 2.784C107.307 2.61333 107.147 2.464 107.04 2.336C106.955 2.208 106.944 2.03733 107.008 1.824C107.136 1.33333 107.808 0.906666 109.024 0.543999C110.24 0.181333 111.51 0 112.832 0C114.07 0 114.976 0.234667 115.552 0.704C116.15 1.17333 116.449 1.81333 116.449 2.624C116.449 3.09333 116.374 3.552 116.225 4L114.496 9.632C115.328 8.544 116.203 7.78667 117.12 7.36C118.059 6.93333 119.072 6.72 120.16 6.72C121.462 6.72 122.507 7.11467 123.297 7.904C124.107 8.69333 124.512 9.71733 124.512 10.976C124.512 11.6373 124.406 12.288 124.192 12.928L122.241 19.232Z" fill="#FFD61E"/>
<path d="M137.727 6.72C140.629 6.72 142.762 7.30667 144.127 8.48C145.514 9.65333 146.207 11.1893 146.207 13.088C146.207 13.728 146.122 14.4427 145.951 15.232C145.546 16.9813 144.789 18.5173 143.679 19.84C142.57 21.1413 141.205 22.1547 139.583 22.88C137.983 23.584 136.245 23.936 134.367 23.936C131.402 23.936 129.205 23.3493 127.775 22.176C126.367 20.9813 125.663 19.4027 125.663 17.44C125.663 16.7787 125.749 16.0427 125.919 15.232C126.325 13.568 127.093 12.096 128.223 10.816C129.375 9.51467 130.773 8.512 132.415 7.808C134.079 7.08267 135.85 6.72 137.727 6.72ZM137.631 9.568C137.183 9.568 136.703 9.97333 136.191 10.784C135.701 11.5733 135.114 13.0773 134.431 15.296C133.749 17.5147 133.407 19.072 133.407 19.968C133.407 20.4373 133.482 20.7573 133.631 20.928C133.781 21.0773 133.983 21.152 134.239 21.152C134.687 21.1947 135.146 20.8107 135.615 20C136.106 19.1893 136.714 17.6107 137.439 15.264C138.101 13.1947 138.431 11.6907 138.431 10.752C138.431 10.304 138.357 9.99467 138.207 9.824C138.079 9.65333 137.887 9.568 137.631 9.568Z" fill="#FFD61E"/>
<path d="M158.727 6.72C161.629 6.72 163.762 7.30667 165.127 8.48C166.514 9.65333 167.207 11.1893 167.207 13.088C167.207 13.728 167.122 14.4427 166.951 15.232C166.546 16.9813 165.789 18.5173 164.679 19.84C163.57 21.1413 162.205 22.1547 160.583 22.88C158.983 23.584 157.245 23.936 155.367 23.936C152.402 23.936 150.205 23.3493 148.775 22.176C147.367 20.9813 146.663 19.4027 146.663 17.44C146.663 16.7787 146.749 16.0427 146.919 15.232C147.325 13.568 148.093 12.096 149.223 10.816C150.375 9.51467 151.773 8.512 153.415 7.808C155.079 7.08267 156.85 6.72 158.727 6.72ZM158.631 9.568C158.183 9.568 157.703 9.97333 157.191 10.784C156.701 11.5733 156.114 13.0773 155.431 15.296C154.749 17.5147 154.407 19.072 154.407 19.968C154.407 20.4373 154.482 20.7573 154.631 20.928C154.781 21.0773 154.983 21.152 155.239 21.152C155.687 21.1947 156.146 20.8107 156.615 20C157.106 19.1893 157.714 17.6107 158.439 15.264C159.101 13.1947 159.431 11.6907 159.431 10.752C159.431 10.304 159.357 9.99467 159.207 9.824C159.079 9.65333 158.887 9.568 158.631 9.568Z" fill="#FFD61E"/>
<path d="M177.871 6.432C179.642 6.432 181.167 6.592 182.447 6.912C183.749 7.232 184.741 7.68 185.423 8.256C186.127 8.832 186.479 9.48267 186.479 10.208C186.479 10.9547 186.181 11.5627 185.583 12.032C185.007 12.5013 184.197 12.736 183.151 12.736C182.085 12.736 181.178 12.4693 180.431 11.936C179.706 11.4027 179.343 10.7307 179.343 9.92C179.343 9.64267 179.386 9.376 179.471 9.12C179.087 9.01333 178.746 8.96 178.447 8.96C177.914 8.96 177.466 9.088 177.103 9.344C176.762 9.6 176.602 9.96267 176.623 10.432C176.623 10.9867 176.901 11.456 177.455 11.84C178.01 12.224 178.906 12.704 180.143 13.28C181.21 13.7493 182.085 14.1867 182.767 14.592C183.471 14.976 184.058 15.4667 184.527 16.064C185.018 16.6613 185.263 17.3653 185.263 18.176C185.263 18.3467 185.221 18.6667 185.135 19.136C184.794 20.5653 183.845 21.696 182.287 22.528C180.73 23.36 178.682 23.776 176.143 23.776C173.285 23.776 171.013 23.392 169.327 22.624C167.663 21.856 166.831 20.8 166.831 19.456C166.831 18.5387 167.109 17.8453 167.663 17.376C168.218 16.9067 168.954 16.672 169.871 16.672C170.938 16.672 171.845 17.0027 172.591 17.664C173.359 18.3253 173.743 19.168 173.743 20.192C173.743 20.4693 173.711 20.7573 173.647 21.056C174.159 21.184 174.65 21.248 175.119 21.248C175.674 21.248 176.133 21.0987 176.495 20.8C176.858 20.5013 177.039 20.0853 177.039 19.552C177.018 19.0613 176.773 18.6453 176.303 18.304C175.834 17.9413 175.087 17.5147 174.063 17.024C173.103 16.576 172.314 16.16 171.695 15.776C171.077 15.3707 170.543 14.8693 170.095 14.272C169.669 13.6747 169.455 12.9707 169.455 12.16C169.455 10.4107 170.181 9.024 171.631 8C173.103 6.95467 175.183 6.432 177.871 6.432Z" fill="#FFD61E"/>
<path d="M197.16 6.56C199.869 6.56 201.832 6.99733 203.048 7.872C204.264 8.72533 204.872 9.824 204.872 11.168C204.872 11.5733 204.829 11.9467 204.744 12.288C204.424 13.696 203.528 14.7093 202.056 15.328C200.605 15.9253 198.888 16.224 196.904 16.224C195.901 16.224 194.963 16.16 194.088 16.032C194.067 17.1413 194.365 17.92 194.984 18.368C195.603 18.816 196.467 19.04 197.576 19.04C198.088 19.04 198.579 18.9867 199.048 18.88C199.517 18.752 200.115 18.5707 200.84 18.336C201.437 18.1227 201.843 18.016 202.056 18.016C202.291 18.016 202.408 18.1547 202.408 18.432C202.429 19.1787 202.152 19.968 201.576 20.8C201 21.6107 200.147 22.304 199.016 22.88C197.885 23.456 196.52 23.744 194.92 23.744C192.552 23.744 190.611 23.1467 189.096 21.952C187.581 20.7573 186.824 19.0187 186.824 16.736C186.824 16.096 186.909 15.3493 187.08 14.496C187.613 11.872 188.776 9.89867 190.568 8.576C192.381 7.232 194.579 6.56 197.16 6.56ZM194.312 14.112C194.397 14.1333 194.515 14.144 194.664 14.144C195.56 14.144 196.243 13.728 196.712 12.896C197.181 12.064 197.405 11.136 197.384 10.112C197.363 9.51467 197.192 9.216 196.872 9.216C196.637 9.216 196.36 9.408 196.04 9.792C195.72 10.1547 195.4 10.7093 195.08 11.456C194.781 12.2027 194.525 13.088 194.312 14.112Z" fill="#FFD61E"/>
</svg>
